<?xml version="1.0" encoding="UTF-8"?><svg id="a" xmlns="http://www.w3.org/2000/svg" width="400" height="70.52" xmlns:xlink="http://www.w3.org/1999/xlink" viewBox="0 0 400 70.52"><defs><linearGradient id="b" x1="200" y1=".26" x2="200" y2="70.26" gradientUnits="userSpaceOnUse"><stop offset="0" stop-color="#102269"/><stop offset="1" stop-color="#021223"/></linearGradient><clipPath id="c"><rect y=".26" width="400" height="70" fill="none" stroke-width="0"/></clipPath></defs><rect y=".26" width="400" height="70" fill="url(#b)" stroke-width="0"/><rect x="40" y="11.36" width="46.89" height="15.63" fill="#fff" stroke-width="0"/><rect x="31.65" y="31.3" width="63.6" height="15.63" fill="#fff" stroke-width="0"/><line x1="28.14" y1="13.24" x2="38.13" y2="13.24" fill="none" stroke="#ed9e41" stroke-miterlimit="10" stroke-width=".5"/><line x1="87.7" y1="12.43" x2="97.69" y2="12.43" fill="none" stroke="#ed9e41" stroke-miterlimit="10" stroke-width=".5"/><line x1="91.75" y1="22.14" x2="101.45" y2="22.14" fill="none" stroke="#ed9e41" stroke-miterlimit="10" stroke-width=".5"/><line x1="30.57" y1="23.21" x2="38.13" y2="23.21" fill="none" stroke="#ed9e41" stroke-miterlimit="10" stroke-width=".5"/><line x1="25.58" y1="36.15" x2="30.05" y2="36.15" fill="none" stroke="#ed9e41" stroke-miterlimit="10" stroke-width=".5"/><line x1="96.6" y1="45.31" x2="101.31" y2="45.31" fill="none" stroke="#ed9e41" stroke-miterlimit="10" stroke-width=".5"/><line x1="90.13" y1="24.83" x2="95.27" y2="24.83" fill="none" stroke="#7a29ed" stroke-miterlimit="10" stroke-width=".5"/><line x1="33.53" y1="17.55" x2="38.67" y2="17.55" fill="none" stroke="#7a29ed" stroke-miterlimit="10" stroke-width=".5"/><line x1="25.45" y1="26.72" x2="30.59" y2="26.72" fill="none" stroke="#7a29ed" stroke-miterlimit="10" stroke-width=".5"/><line x1="96.6" y1="37.23" x2="99.04" y2="37.23" fill="none" stroke="#7a29ed" stroke-miterlimit="10" stroke-width=".5"/><line x1="27.6" y1="41.27" x2="30.05" y2="41.27" fill="none" stroke="#7a29ed" stroke-miterlimit="10" stroke-width=".5"/><rect x="37.1" y="51.3" width="52.7" height="7.86" rx="2" ry="2" fill="#7a29ed" stroke-width="0"/><rect x="133.9" y="14.66" width="105" height="5" fill="#fff" stroke-width="0"/><rect x="126.9" y="23.66" width="119" height="5" fill="#fff" stroke-width="0"/><rect x="137.9" y="34.66" width="20.67" height="21.5" rx="1" ry="1" fill="none" stroke="#7a29ed" stroke-miterlimit="10" stroke-width=".5"/><rect x="163.34" y="34.66" width="20.67" height="21.5" rx="1" ry="1" fill="none" stroke="#7a29ed" stroke-miterlimit="10" stroke-width=".5"/><rect x="188.78" y="34.66" width="20.67" height="21.5" rx="1" ry="1" fill="none" stroke="#7a29ed" stroke-miterlimit="10" stroke-width=".5"/><rect x="214.22" y="34.66" width="20.67" height="21.5" rx="1" ry="1" fill="none" stroke="#7a29ed" stroke-miterlimit="10" stroke-width=".5"/><g clip-path="url(#c)"><line x1="396.42" y1="6.26" x2="426.77" y2="6.26" fill="none" stroke="#ed9e41" stroke-miterlimit="10" stroke-width=".5"/><line x1="356.63" y1="23.79" x2="426.77" y2="23.79" fill="none" stroke="#ed9e41" stroke-miterlimit="10" stroke-width=".5"/><line x1="364.72" y1="64.26" x2="426.77" y2="64.26" fill="none" stroke="#ed9e41" stroke-miterlimit="10" stroke-width=".5"/><line x1="364.72" y1="50.77" x2="426.77" y2="50.77" fill="none" stroke="#7a2bf0" stroke-miterlimit="10" stroke-width=".5"/><line x1="351.23" y1="29.19" x2="418" y2="29.19" fill="none" stroke="#7a2bf0" stroke-miterlimit="10" stroke-width=".5"/><line x1="-36.94" y1="6.26" x2="39.94" y2="6.26" fill="none" stroke="#ed9e41" stroke-miterlimit="10" stroke-width=".5"/><line x1="-36.94" y1="21.1" x2="17.69" y2="21.1" fill="none" stroke="#7a2bf0" stroke-miterlimit="10" stroke-width=".5"/><line x1="-36.94" y1="64.26" x2="25.78" y2="64.26" fill="none" stroke="#7a2bf0" stroke-miterlimit="10" stroke-width=".5"/><line x1="-36.94" y1="27.84" x2="2.85" y2="27.84" fill="none" stroke="#ed9e41" stroke-miterlimit="10" stroke-width=".5"/><line x1="-30.2" y1="53.47" x2="38.59" y2="53.47" fill="none" stroke="#ed9e41" stroke-miterlimit="10" stroke-width=".5"/></g><rect x="271.34" y="25.76" width="103.71" height="19" rx="1" ry="1" fill="#ed9e41" stroke-width="0"/></svg>