<svg viewBox="0 0 201 276" xmlns="http://www.w3.org/2000/svg" xml:space="preserve" style="fill-rule:evenodd;clip-rule:evenodd;stroke-linecap:round;stroke-linejoin:round;stroke-miterlimit:1.5"><path d="M201 14.528C201 8.166 196.497 3 190.95 3H10.05C4.503 3 0 8.166 0 14.528v246.944C0 267.834 4.503 273 10.05 273h180.9c5.547 0 10.05-5.166 10.05-11.528V14.528Z" style="fill:#fff" transform="matrix(1 0 0 .87177 0 17.695)"/><path d="M0 141.358v104.281c0 5.547 4.503 10.05 10.05 10.05h180.9c5.547 0 10.05-4.503 10.05-10.05v-57.858c-42.921 20.044-65.622 15.094-118.84-17.515C56.799 154.727 30.086 143.124 0 141.358Z" style="fill:#fde4d6"/><path d="M175.5 52.561a2.25 2.25 0 0 0-2.25-2.25H27.75a2.25 2.25 0 0 0-2.25 2.25v10.5a2.25 2.25 0 0 0 2.25 2.25h145.5a2.25 2.25 0 0 0 2.25-2.25v-10.5Zm15-20a2.25 2.25 0 0 0-2.25-2.25H12.75a2.25 2.25 0 0 0-2.25 2.25v10.5a2.25 2.25 0 0 0 2.25 2.25h175.5a2.25 2.25 0 0 0 2.25-2.25v-10.5Z" style="fill:#28324e"/><path d="M281.071 31.318c0-.227-.829-.41-1.851-.41H127.24c-1.022 0-1.851.183-1.851.41v6.849c0 .226.829.41 1.851.41h151.98c1.022 0 1.851-.184 1.851-.41v-6.849Z" style="fill:#fff;stroke:#d1d0d0;stroke-width:.26px" transform="matrix(1.1562 0 0 5.2155 -134.474 -85.51)"/><path d="M281.071 32.058c0-.635-.593-1.15-1.323-1.15H126.712c-.73 0-1.323.515-1.323 1.15v5.369c0 .635.593 1.15 1.323 1.15h153.036c.73 0 1.323-.515 1.323-1.15v-5.369Z" style="fill:#28324e" transform="matrix(.56667 0 0 .65194 -14.664 69.04)"/><path d="M281.071 32.058c0-.635-.955-1.15-2.132-1.15H127.521c-1.177 0-2.132.515-2.132 1.15v5.369c0 .635.955 1.15 2.132 1.15h151.418c1.177 0 2.132-.515 2.132-1.15v-5.369Z" style="fill:#28324e" transform="matrix(.35175 0 0 .65194 29.015 77.04)"/><path d="M281.071 31.685c0-.429-7.068-.777-15.774-.777H141.163c-8.706 0-15.774.348-15.774.777V37.8c0 .429 7.068.777 15.774.777h124.134c8.706 0 15.774-.348 15.774-.777v-6.115Z" style="fill:#fff;stroke:#f37934;stroke-width:.45px" transform="matrix(.15416 0 0 3.1293 137.17 -13.03)"/><path d="M281.071 31.098c0-.105-2.092-.19-4.67-.19H130.059c-2.577 0-4.67.085-4.67.19v7.289c0 .105 2.093.19 4.67.19h146.342c2.578 0 4.67-.085 4.67-.19v-7.289Z" style="fill:#d1d0d0" transform="matrix(.12743 0 0 3.1293 4.522 -13.03)"/><path d="M291.527 71.924h-163l50.53-49.912 41.91 41.4 30.97-30.593 39.59 39.105ZM226.6 11.422c5.904 0 10.698 4.794 10.698 10.699 0 5.903-4.794 10.698-10.698 10.698-5.906 0-10.7-4.795-10.7-10.698 0-5.905 4.794-10.699 10.7-10.699Z" style="fill:#fff" transform="matrix(.10527 0 0 .10527 8.31 91.302)"/><g><path d="M281.071 31.318c0-.227-.829-.41-1.851-.41H127.24c-1.022 0-1.851.183-1.851.41v6.849c0 .226.829.41 1.851.41h151.98c1.022 0 1.851-.184 1.851-.41v-6.849Z" style="fill:#fff;stroke:#d1d0d0;stroke-width:.26px" transform="matrix(1.1562 0 0 5.2155 -134.474 -35.51)"/><path d="M281.071 32.058c0-.635-.593-1.15-1.323-1.15H126.712c-.73 0-1.323.515-1.323 1.15v5.369c0 .635.593 1.15 1.323 1.15h153.036c.73 0 1.323-.515 1.323-1.15v-5.369Z" style="fill:#28324e" transform="matrix(.56667 0 0 .65194 -14.664 119.04)"/><path d="M281.071 32.058c0-.635-.955-1.15-2.132-1.15H127.521c-1.177 0-2.132.515-2.132 1.15v5.369c0 .635.955 1.15 2.132 1.15h151.418c1.177 0 2.132-.515 2.132-1.15v-5.369Z" style="fill:#28324e" transform="matrix(.35175 0 0 .65194 29.015 127.04)"/><path d="M281.071 31.685c0-.429-7.068-.777-15.774-.777H141.163c-8.706 0-15.774.348-15.774.777V37.8c0 .429 7.068.777 15.774.777h124.134c8.706 0 15.774-.348 15.774-.777v-6.115Z" style="fill:#fff;stroke:#f37934;stroke-width:.45px" transform="matrix(.15416 0 0 3.1293 137.17 36.97)"/><path d="M281.071 31.098c0-.105-2.092-.19-4.67-.19H130.059c-2.577 0-4.67.085-4.67.19v7.289c0 .105 2.093.19 4.67.19h146.342c2.578 0 4.67-.085 4.67-.19v-7.289Z" style="fill:#d1d0d0" transform="matrix(.12743 0 0 3.1293 4.522 36.97)"/><path d="M291.527 71.924h-163l50.53-49.912 41.91 41.4 30.97-30.593 39.59 39.105ZM226.6 11.422c5.904 0 10.698 4.794 10.698 10.699 0 5.903-4.794 10.698-10.698 10.698-5.906 0-10.7-4.795-10.7-10.698 0-5.905 4.794-10.699 10.7-10.699Z" style="fill:#fff" transform="matrix(.10527 0 0 .10527 8.31 141.302)"/></g><g><path d="M281.071 31.318c0-.227-.829-.41-1.851-.41H127.24c-1.022 0-1.851.183-1.851.41v6.849c0 .226.829.41 1.851.41h151.98c1.022 0 1.851-.184 1.851-.41v-6.849Z" style="fill:#fff;stroke:#d1d0d0;stroke-width:.26px" transform="matrix(1.1562 0 0 5.2155 -134.474 14.491)"/><path d="M281.071 32.058c0-.635-.593-1.15-1.323-1.15H126.712c-.73 0-1.323.515-1.323 1.15v5.369c0 .635.593 1.15 1.323 1.15h153.036c.73 0 1.323-.515 1.323-1.15v-5.369Z" style="fill:#28324e" transform="matrix(.56667 0 0 .65194 -14.664 169.04)"/><path d="M281.071 32.058c0-.635-.955-1.15-2.132-1.15H127.521c-1.177 0-2.132.515-2.132 1.15v5.369c0 .635.955 1.15 2.132 1.15h151.418c1.177 0 2.132-.515 2.132-1.15v-5.369Z" style="fill:#28324e" transform="matrix(.35175 0 0 .65194 29.015 177.04)"/><path d="M281.071 31.685c0-.429-7.068-.777-15.774-.777H141.163c-8.706 0-15.774.348-15.774.777V37.8c0 .429 7.068.777 15.774.777h124.134c8.706 0 15.774-.348 15.774-.777v-6.115Z" style="fill:#fff;stroke:#f37934;stroke-width:.45px" transform="matrix(.15416 0 0 3.1293 137.17 86.97)"/><path d="M281.071 31.098c0-.105-2.092-.19-4.67-.19H130.059c-2.577 0-4.67.085-4.67.19v7.289c0 .105 2.093.19 4.67.19h146.342c2.578 0 4.67-.085 4.67-.19v-7.289Z" style="fill:#d1d0d0" transform="matrix(.12743 0 0 3.1293 4.522 86.97)"/><path d="M291.527 71.924h-163l50.53-49.912 41.91 41.4 30.97-30.593 39.59 39.105ZM226.6 11.422c5.904 0 10.698 4.794 10.698 10.699 0 5.903-4.794 10.698-10.698 10.698-5.906 0-10.7-4.795-10.7-10.698 0-5.905 4.794-10.699 10.7-10.699Z" style="fill:#fff" transform="matrix(.10527 0 0 .10527 8.31 191.302)"/></g><g><path d="M281.504 31.685c0-.535-.979-.969-2.185-.969H127.141c-1.206 0-2.185.434-2.185.969V37.8c0 .535.979.969 2.185.969h152.178c1.206 0 2.185-.434 2.185-.969v-6.115Zm-.865 0V37.8c0 .323-.592.585-1.32.585H127.141c-.728 0-1.32-.262-1.32-.585v-6.115c0-.323.592-.586 1.32-.586h152.178c.728 0 1.32.263 1.32.586Z" style="fill:#f37934" transform="matrix(1.1562 0 0 2.60775 -134.474 145.09)"/></g></svg>