<?xml version="1.0" encoding="UTF-8" standalone="no"?>
<!DOCTYPE svg PUBLIC "-//W3C//DTD SVG 1.1//EN" "http://www.w3.org/Graphics/SVG/1.1/DTD/svg11.dtd">
<svg width="100%" height="100%" viewBox="0 0 708 530" version="1.1" xmlns="http://www.w3.org/2000/svg" xmlns:xlink="http://www.w3.org/1999/xlink" xml:space="preserve" xmlns:serif="http://www.serif.com/" style="fill-rule:evenodd;clip-rule:evenodd;stroke-linejoin:round;stroke-miterlimit:2;">
    <g transform="matrix(3.47059,0,0,1.96296,-375.167,-8.42124e-14)">
        <path d="M108.1,0L312.099,0L312.099,270L108.099,270L108.1,0Z" style="fill:url(#_Linear1);"/>
    </g>
    <g transform="matrix(2.75818,0,0,2.75818,-629.611,31.304)">
        <path d="M480.234,180.806L231.837,180.806L308.84,104.746L372.707,167.835L419.903,121.213L480.233,180.806L480.234,180.806ZM381.291,88.606C390.289,88.606 397.594,95.912 397.594,104.911C397.594,113.907 390.289,121.213 381.291,121.213C372.291,121.213 364.987,113.907 364.987,104.911C364.987,95.912 372.291,88.607 381.291,88.607L381.291,88.606Z" style="fill:white;fill-opacity:0.1;"/>
    </g>
    <g transform="matrix(1.54089,0,0,1.54089,30.3362,56.9791)">
        <path d="M146.7,155.922L267.443,155.922L267.443,170.922L146.7,170.922L146.7,155.922ZM128.527,135.922L291.473,135.922L291.473,150.922L128.527,150.922L128.527,135.922Z" style="fill:white;"/>
    </g>
    <g transform="matrix(1.54089,0,0,1.54089,30.3362,46.9585)">
        <path d="M128.527,238.732C128.527,238.385 128.665,238.052 128.91,237.806C129.156,237.561 129.489,237.423 129.836,237.423L290.194,237.423C290.9,237.423 291.473,237.996 291.473,238.702L291.473,256.094C291.473,256.446 291.333,256.784 291.084,257.034C290.834,257.283 290.496,257.423 290.144,257.423L129.822,257.423C129.107,257.423 128.527,256.843 128.527,256.128L128.527,238.732Z" style="fill:white;"/>
    </g>
    <g transform="matrix(1.54089,0,0,1.54089,30.4888,46.9585)">
        <path d="M128.527,214.441C128.527,213.906 128.739,213.393 129.118,213.015C129.496,212.636 130.009,212.424 130.544,212.424L289.502,212.424C290.025,212.424 290.526,212.632 290.896,213.001C291.265,213.371 291.473,213.872 291.473,214.395L291.473,230.376C291.473,230.919 291.257,231.44 290.873,231.824C290.489,232.208 289.968,232.424 289.425,232.424L130.522,232.424C129.993,232.424 129.486,232.214 129.111,231.84C128.737,231.465 128.527,230.958 128.527,230.429L128.527,214.441ZM128.527,189.442C128.527,188.907 128.739,188.394 129.118,188.016C129.496,187.637 130.009,187.425 130.544,187.425L289.502,187.425C290.025,187.425 290.526,187.633 290.896,188.002C291.265,188.372 291.473,188.873 291.473,189.396L291.473,205.377C291.473,205.92 291.257,206.441 290.873,206.825C290.489,207.209 289.968,207.425 289.425,207.425L130.522,207.425C129.993,207.425 129.486,207.215 129.111,206.841C128.737,206.466 128.527,205.959 128.527,205.43L128.527,189.442Z" style="fill:white;"/>
    </g>
    <g transform="matrix(1.54089,0,0,1.54089,30.3362,68.7794)">
        <path d="M291.527,71.924L128.527,71.924L179.057,22.012L220.967,63.412L251.937,32.819L291.527,71.924ZM226.6,11.422C232.504,11.422 237.298,16.216 237.298,22.121C237.298,28.024 232.504,32.819 226.6,32.819C220.694,32.819 215.9,28.024 215.9,22.121C215.9,16.216 220.694,11.422 226.6,11.422Z" style="fill:white;"/>
    </g>
    <g transform="matrix(1.54065,0,0,1.54065,30.4063,31.5565)">
        <g transform="matrix(0.99016,0,0,0.99016,6.23841,17.3825)">
            <rect x="123.481" y="89.596" width="36.358" height="36.358" style="fill:rgb(235,235,235);fill-opacity:0.2;"/>
        </g>
        <g transform="matrix(0.99016,0,0,0.99016,48.5638,17.3825)">
            <rect x="123.481" y="89.596" width="36.358" height="36.358" style="fill:rgb(235,235,235);fill-opacity:0.2;"/>
        </g>
        <g transform="matrix(0.99016,0,0,0.99016,91.0707,17.3825)">
            <rect x="123.481" y="89.596" width="36.358" height="36.358" style="fill:rgb(235,235,235);fill-opacity:0.2;"/>
        </g>
        <g transform="matrix(0.99016,0,0,0.99016,133.261,17.3825)">
            <rect x="123.481" y="89.596" width="36.358" height="36.358" style="fill:rgb(235,235,235);fill-opacity:0.2;"/>
        </g>
    </g>
    <defs>
        <linearGradient id="_Linear1" x1="0" y1="0" x2="1" y2="0" gradientUnits="userSpaceOnUse" gradientTransform="matrix(1.65327e-14,-270,270,1.65327e-14,212.93,270)"><stop offset="0" style="stop-color:rgb(202,6,31);stop-opacity:1"/><stop offset="1" style="stop-color:rgb(250,129,131);stop-opacity:1"/></linearGradient>
    </defs>
</svg>
