<?xml version="1.0" encoding="UTF-8"?><svg id="a" xmlns="http://www.w3.org/2000/svg" width="400" height="300" xmlns:xlink="http://www.w3.org/1999/xlink" viewBox="0 0 400 300"><defs><linearGradient id="b" x1="200.48" y1=".08" x2="200.48" y2="300.08" gradientUnits="userSpaceOnUse"><stop offset="0" stop-color="#fff"/><stop offset="1" stop-color="#e6e5e5"/></linearGradient></defs><rect x=".48" y=".08" width="400" height="300" fill="url(#b)"/><rect x="64.87" y="59.1" width="270.25" height="152.06" fill="gray"/><path d="M232.58,135.15c.12,17.99-14.76,32.64-32.71,32.57-17.84-.08-32.59-14.77-32.45-32.86.14-17.78,14.77-32.43,32.72-32.32,17.99.11,32.45,14.56,32.44,32.61ZM189.27,135.17c0,4.34,0,8.67,0,13.01,0,2.34,2.16,3.57,4.19,2.39,2.05-1.2,4.08-2.4,6.13-3.6,5.35-3.15,10.71-6.3,16.07-9.45.63-.37,1.13-.84,1.33-1.56.37-1.28-.07-2.44-1.22-3.12-2.63-1.56-5.26-3.1-7.89-4.65-4.83-2.84-9.65-5.68-14.48-8.52-.54-.32-1.11-.54-1.75-.44-1.47.23-2.38,1.3-2.38,2.81,0,4.37,0,8.74,0,13.12Z" fill="#fff"/><rect x="133.5" y="216.9" width="133" height="15.93" rx="7.96" ry="7.96" fill="#fff" stroke="#3a3739" stroke-miterlimit="10"/><rect x="159" y="237.9" width="82" height="3" fill="#938f90"/></svg>